Coordinates	
version=1	
nRows=372	
nColumns=2	
inDegrees=yes	
endheader	
time	shoulder_elv
0	30.0000006
0.01	29.98655824
0.011729769	29.98150796
0.014231266	29.97278127
0.016688453	29.96257525
0.018891451	29.95204434
0.021094449	29.94021547
0.023297447	29.92708069
0.025500445	29.91265044
0.027479995	29.89857011
0.029459545	29.88344444
0.031439094	29.86726829
0.034140191	29.84350788
0.036205905	29.82401801
0.038271619	29.80339179
0.040337332	29.78162431
0.042858785	29.75351495
0.044898316	29.7295351
0.046937847	29.70445078
0.048977378	29.67825715
0.051551236	29.64362507
0.053599496	29.61480407
0.055647755	29.58487257
0.057696015	29.55382587
0.060255409	29.51347162
0.062301541	29.47995913
0.064347672	29.44534242
0.066393804	29.4096169
0.068960847	29.36323563
0.071008178	29.32499535
0.073055508	29.28565398
0.075102839	29.24520703
0.077671819	29.19289812
0.07971927	29.14996404
0.081766721	29.10593363
0.083814172	29.06080252
0.086388016	29.00251469
0.088435887	28.954898
0.090483758	28.90618989
0.092531629	28.85638613
0.095110582	28.79211588
0.097158752	28.73983801
0.099206922	28.68647425
0.101255091	28.63202047
0.103840244	28.56174227
0.105888732	28.50482321
0.107937221	28.44682425
0.10998571	28.3877414
0.112577892	28.31143208
0.114626687	28.24989437
0.116675482	28.18728324
0.118724278	28.12359486
0.121324404	28.04122543
0.123373517	27.97509263
0.12542263	27.90789343
0.127471742	27.8396241
0.130080703	27.75116275
0.132130149	27.68045994
0.134179596	27.60869821
0.136229043	27.53587401
0.138847733	27.44128539
0.140897544	27.36603885
0.142947354	27.28974139
0.144997165	27.21238961
0.147626279	27.11164296
0.149676743	27.0318706
0.151727207	26.95105557
0.153777671	26.86919461
0.156417611	26.76226908
0.158468402	26.67801417
0.160519193	26.59272572
0.162569984	26.50640067
0.165233115	26.3927626
0.167271302	26.30461565
0.169309489	26.21545777
0.171347676	26.12528613
0.17406104	26.00368057
0.176107065	25.91080073
0.17815309	25.81691272
0.180199115	25.72201391
0.182909078	25.59477431
0.184954653	25.49756083
0.187000228	25.39935086
0.189045804	25.30014191
0.191771382	25.16641129
0.193819154	25.06477679
0.195866925	24.96215554
0.197914697	24.8585452
0.200651478	24.71853967
0.202700646	24.61256046
0.204749815	24.50560568
0.207210381	24.37588652
0.209402445	24.25914503
0.211594509	24.14129109
0.213786573	24.02233608
0.215978637	23.90227644
0.2181707	23.78112332
0.220362764	23.65887363
0.222554828	23.53553824
0.224746892	23.41111456
0.226938956	23.28561313
0.22913102	23.15903194
0.231323084	23.03138114
0.233515148	22.90265932
0.235707212	22.77287622
0.237899276	22.64203109
0.24009134	22.51013323
0.242283404	22.37718255
0.244927152	22.21544908
0.246903418	22.09355646
0.248879685	21.97082495
0.251463941	21.80906811
0.253770784	21.66347312
0.256077628	21.51674279
0.258384472	21.36889275
0.260388574	21.23953176
0.262392677	21.10933379
0.264879485	20.94661041
0.267366293	20.78260957
0.269368888	20.64961112
0.271371482	20.51579469
0.2739144	20.34469249
0.276457318	20.17228458
0.27838851	20.04047649
0.280319702	19.90792568
0.282994593	19.72310168
0.285393459	19.55614964
0.287792325	19.38806293
0.289789379	19.24728003
0.291786433	19.10572045
0.294326631	18.92455408
0.296866828	18.74215071
0.298858481	18.59828511
0.300850133	18.4536687
0.303452061	18.26362473
0.306053989	18.07232084
0.307970018	17.93065547
0.309886048	17.78831626
0.312630925	17.58324677
0.315023191	17.40341488
0.317415456	17.22256948
0.319807722	17.04070952
0.321794223	16.88894226
0.323780723	16.73648784
0.326381286	16.53588696
0.328981848	16.33413418
0.330990895	16.17749844
0.332999942	16.02018773
0.335653798	15.81137241
0.338307654	15.60140718
0.34019214	15.45162996
0.342076626	15.30128434
0.34494804	15.07112991
0.347372461	14.875805
0.349796882	14.67958517
0.352221304	14.48247255
0.354277466	14.31462063
0.356333628	14.1461434
0.358894439	13.93546341
0.36145525	13.7238438
0.363547128	13.55029796
0.365639007	13.37614288
0.368225857	13.15996035
0.370812708	12.94287905
0.372812514	12.77446486
0.374812321	12.60553101
0.377520991	12.37591158
0.380229662	12.14537847
0.382232091	11.97438735
0.384234519	11.80291542
0.387066927	11.55957778
0.38944038	11.3549664
0.391813833	11.14973679
0.394187285	10.9438961
0.396560738	10.73747099
0.398934191	10.53046612
0.401307644	10.32291182
0.403443469	10.13566956
0.405579294	9.948008487
0.40771512	9.759933817
0.410584092	9.506680671
0.41307025	9.286660676
0.415556408	9.066154287
0.417650418	8.88005703
0.419744429	8.693644447
0.422404882	8.456363066
0.425065334	8.218620787
0.427177393	8.029566009
0.429289451	7.840255762
0.431986906	7.59811746
0.434684361	7.355617313
0.436651514	7.178551905
0.438618668	7.001326115
0.441452137	6.745785794
0.444285607	6.489975357
0.446414259	6.297635525
0.448542911	6.105185396
0.451266061	5.858845063
0.45398921	5.612389895
0.456212269	5.411126564
0.458435327	5.209835001
0.460658386	5.008528911
0.463541146	4.747507659
0.465928195	4.531415058
0.468315244	4.315401782
0.470702294	4.099486111
0.473089343	3.88370789
0.475476392	3.668086776
0.477863441	3.452660377
0.480250491	3.237454287
0.483175465	2.974101468
0.485434903	2.770965535
0.487694341	2.568121131
0.489953779	2.365588895
0.492737997	2.116493967
0.495172236	1.899178786
0.497242319	1.714748518
0.499312402	1.530679005
0.50203599	1.289098689
0.504184567	1.099026329
0.506333144	0.909434284
0.50848172	0.720341073
0.511071898	0.49309282
0.513662075	0.266656791
0.515826372	0.078114888
0.517990669	-0.109801245
0.520932499	-0.364161582
0.52387433	-0.617232348
0.526031118	-0.801909789
0.528187907	-0.98583186
0.530344695	-1.168961055
0.532501484	-1.351275096
0.534658273	-1.532737109
0.536815061	-1.713323809
0.53897185	-1.892999015
0.541128638	-2.071739887
0.543285427	-2.249506375
0.545442215	-2.426277589
0.547599004	-2.60201454
0.549755792	-2.776692519
0.551912581	-2.950273511
0.554069369	-3.122734186
0.556226158	-3.294034244
0.558382946	-3.464150995
0.560539735	-3.633041745
0.562696523	-3.80068525
0.564853312	-3.96704169
0.5670101	-4.1320847
0.569166889	-4.295773502
0.571323677	-4.458086117
0.573480466	-4.618981356
0.575637254	-4.778434577
0.577794043	-4.936402412
0.579950831	-5.092863658
0.58210762	-5.247777197
0.584264408	-5.401118168
0.586421197	-5.552842541
0.588577985	-5.702928705
0.591706232	-5.917628362
0.593267836	-6.023457633
0.595157433	-6.150288615
0.597579739	-6.310883598
0.599586536	-6.4421981
0.601593332	-6.571924911
0.603600129	-6.700028614
0.605606926	-6.826491894
0.607613723	-6.951280395
0.60962052	-7.074378046
0.611627317	-7.195749622
0.613634114	-7.315380108
0.615640911	-7.433235829
0.617647708	-7.549299358
0.619654505	-7.663539019
0.621661301	-7.775939153
0.623668098	-7.886465398
0.625674895	-7.995104469
0.627681692	-8.101823711
0.629688489	-8.206607271
0.631695286	-8.309424826
0.633702083	-8.410262581
0.635492947	-8.498551453
0.63728381	-8.585229664
0.639074674	-8.670276347
0.641359287	-8.77638342
0.643288047	-8.863852298
0.645216806	-8.949376517
0.647145565	-9.032930328
0.649074325	-9.114503148
0.651003084	-9.194070258
0.652931843	-9.271621955
0.654860603	-9.347134237
0.656789362	-9.420598163
0.658718121	-9.491989996
0.66064688	-9.561302078
0.66257564	-9.628512059
0.664504399	-9.693612011
0.666433158	-9.756580616
0.668361918	-9.817411351
0.670290677	-9.876082759
0.672219436	-9.932590139
0.674148196	-9.986913354
0.676076955	-10.03904754
0.678005714	-10.08897363
0.679934473	-10.13668837
0.681863233	-10.18217256
0.683791992	-10.22542477
0.685720751	-10.26642772
0.687649511	-10.30517899
0.68957827	-10.34166361
0.691507029	-10.37587919
0.693435789	-10.40781251
0.695364548	-10.43746324
0.697293307	-10.46481719
0.699222066	-10.48987639
0.701150826	-10.51262676
0.703079585	-10.5330721
0.705008344	-10.55120043
0.706937104	-10.56701462
0.708865863	-10.58050512
0.710794622	-10.59167483
0.712723382	-10.60051617
0.714652141	-10.60703395
0.7165809	-10.61121997
0.718509659	-10.61308114
0.720438419	-10.61260961
0.722367178	-10.60981412
0.724295937	-10.60468874
0.726224697	-10.5972419
0.728153456	-10.5874693
0.730082215	-10.57538067
0.732010975	-10.56097224
0.733939734	-10.54425536
0.735868493	-10.52522773
0.737797252	-10.50390112
0.739726012	-10.48027405
0.741654771	-10.45435983
0.74358353	-10.426159
0.74551229	-10.39568436
0.747441049	-10.36293818
0.749369808	-10.32793432
0.751298568	-10.2906758
0.753227327	-10.25117786
0.755156086	-10.20944467
0.757084845	-10.16549206
0.759013605	-10.11932545
0.760942364	-10.0709614
0.762871123	-10.02040688
0.764799883	-9.967678764
0.766728642	-9.912785067
0.768657401	-9.855743559
0.771015588	-9.783097723
0.772757848	-9.727392938
0.774500107	-9.669967287
0.776706215	-9.594807073
0.778912323	-9.516928975
0.781118431	-9.436364888
0.782972973	-9.366570887
0.784827514	-9.294911608
0.787174405	-9.201569765
0.789143818	-9.120975449
0.79111323	-9.038328197
0.793082642	-8.953653332
0.795052054	-8.866965736
0.797021467	-8.778289452
0.799530317	-8.662470011
0.801592562	-8.564906647
0.803654807	-8.46523356
0.805717052	-8.363481246
0.807779297	-8.259668824
0.809841541	-8.153827696
0.811903786	-8.045977187
0.813966031	-7.936148946
